<svg width="61" height="55" fill="none" xmlns="http://www.w3.org/2000/svg"><path d="M8.042.207A1 1 0 019.444.39l5.487 7.135a1 1 0 01-1.586 1.219L8.468 2.402 2.127 7.28a1 1 0 11-1.22-1.585L8.042.207zm52.79 47.513c-12.917 4.34-23.102 6.672-31.015 6.936-7.925.265-13.71-1.544-17.63-5.638C8.294 44.954 6.42 38.82 5.871 30.844 5.323 22.854 6.096 12.847 7.66.87l1.983.26c-1.56 11.948-2.31 21.793-1.776 29.577.536 7.799 2.352 13.365 5.764 16.928 3.382 3.532 8.512 5.276 16.12 5.023 7.62-.255 17.587-2.514 30.444-6.834l.637 1.896z" fill="url(#paint0_linear_515_1179)"/><defs><linearGradient id="paint0_linear_515_1179" x1="6.288" y1=".82" x2="57.694" y2="47.718" gradientUnits="userSpaceOnUse"><stop/><stop offset="1" stop-opacity="0"/></linearGradient></defs></svg>