<svg width="60" height="44" fill="none" xmlns="http://www.w3.org/2000/svg"><path d="M6.669.37A1 1 0 018.075.223L15.059 5.9a1 1 0 01-1.261 1.552L7.59 2.407 2.544 8.614A1 1 0 01.992 7.353L6.669.369zm53.199 38.378c-9.999 3.25-18.102 4.955-24.697 5.054-6.615.1-11.77-1.415-15.78-4.657-3.994-3.227-6.734-8.072-8.72-14.397C8.683 18.425 7.422 10.53 6.45 1.103L8.44.897c.969 9.392 2.214 17.125 4.138 23.252 1.925 6.126 4.5 10.556 8.07 13.441 3.553 2.871 8.209 4.307 14.493 4.212 6.304-.095 14.189-1.732 24.108-4.956l.619 1.903z" fill="url(#paint0_linear_515_567)"/><defs><linearGradient id="paint0_linear_515_567" x1="5.433" y1=".826" x2="57.052" y2="38.948" gradientUnits="userSpaceOnUse"><stop stop-color="#fff"/><stop offset="1" stop-color="#fff" stop-opacity="0"/></linearGradient></defs></svg>