<svg width="121" height="37" fill="none" xmlns="http://www.w3.org/2000/svg"><path d="M.504 21.658a1.5 1.5 0 01.798-1.965l12.436-5.253a1.5 1.5 0 111.167 2.764L3.851 21.873 8.52 32.927a1.5 1.5 0 01-2.764 1.168L.504 21.658zM120.056 2.25C99.763 22.886 82.814 33.246 64.417 35.708 46.08 38.162 26.58 32.722 1.321 22.465l1.129-2.78c25.21 10.238 44.07 15.391 61.57 13.05C81.46 30.4 97.827 20.574 117.916.146l2.139 2.103z" fill="url(#paint0_linear_424_882)"/><defs><linearGradient id="paint0_linear_424_882" x1="-1.145" y1="22.627" x2="117.276" y2="7.306" gradientUnits="userSpaceOnUse"><stop stop-color="#fff"/><stop offset="1" stop-color="#fff" stop-opacity="0"/></linearGradient></defs></svg>