<svg width="88" height="27" fill="none" xmlns="http://www.w3.org/2000/svg"><path d="M.079 15.965a1 1 0 01.532-1.31l8.29-3.502a1 1 0 11.779 1.842l-7.37 3.113 3.113 7.37a1 1 0 11-1.842.778l-3.502-8.29zM87.583 1.702C72.71 16.827 60.3 24.406 46.842 26.207c-13.42 1.796-27.698-2.183-46.218-9.704l.752-1.854c18.488 7.509 32.34 11.297 45.2 9.576C59.398 22.509 71.42 15.286 86.157.3l1.426 1.402z" fill="url(#paint0_linear_424_719)"/><defs><linearGradient id="paint0_linear_424_719" x1="-1.222" y1="16.714" x2="85.616" y2="5.479" gradientUnits="userSpaceOnUse"><stop/><stop offset="1" stop-opacity="0"/></linearGradient></defs></svg>