<svg width="62" height="60" fill="none" xmlns="http://www.w3.org/2000/svg"><circle cx="30" cy="30" r="30" fill="#F5F5F5"/><path d="M28.171 43.33a4.06 4.06 0 001.452 1.228 4.142 4.142 0 003.726 0 4.057 4.057 0 001.452-1.228L61.806 6.598c.487-.667 0-1.598-.834-1.598H54.96a4.11 4.11 0 00-3.322 1.673L31.492 34.096l-9.13-12.428a4.126 4.126 0 00-3.32-1.673h-6.015c-.833 0-1.32.93-.833 1.597L28.171 43.33z" fill="#377E66"/><path d="M28.171 43.33a4.06 4.06 0 001.452 1.228 4.142 4.142 0 003.726 0 4.057 4.057 0 001.452-1.228L61.806 6.598c.487-.667 0-1.598-.834-1.598H54.96a4.11 4.11 0 00-3.322 1.673L31.492 34.096l-9.13-12.428a4.126 4.126 0 00-3.32-1.673h-6.015c-.833 0-1.32.93-.833 1.597L28.171 43.33z" fill="url(#paint0_linear_191_591)"/><defs><linearGradient id="paint0_linear_191_591" x1="24.953" y1="53.947" x2="62.17" y2="50.175" gradientUnits="userSpaceOnUse"><stop stop-color="#FDC32E"/><stop offset=".422" stop-color="#FFE7A8"/><stop offset=".729" stop-color="#FFE6A6"/><stop offset="1" stop-color="#FDC32E"/></linearGradient></defs></svg>