<svg width="375" height="952" fill="none" xmlns="http://www.w3.org/2000/svg"><path d="M215.163 891.174c76.583 15.688 155.654-16.171 221.638-80.97 65.97-64.786 118.626-162.315 142.172-277.26 23.546-114.945 13.479-225.323-21.704-310.83-35.191-85.525-95.366-145.907-171.949-161.595-76.583-15.688-155.654 16.17-221.638 80.97-65.97 64.786-118.626 162.315-142.172 277.26-23.546 114.945-13.48 225.323 21.704 310.83 35.19 85.525 95.366 145.907 171.949 161.595z" stroke="url(#paint0_radial_106_373)" stroke-width="5"/><g filter="url(#filter0_f_106_373)"><circle cx="19.92" cy="19.92" r="19.92" transform="scale(-1 1) rotate(80.535 -267.525 231.126)" fill="#FDC32E" fill-opacity=".5"/></g><circle cx="10.292" cy="10.292" r="10.292" transform="scale(-1 1) rotate(80.535 -277.838 232.118)" fill="#FDC32E"/><g filter="url(#filter1_f_106_373)"><circle cx="19.92" cy="19.92" r="19.92" transform="scale(-1 1) rotate(80.535 -335.995 289.126)" fill="#FDC32E" fill-opacity=".5"/></g><circle cx="10.292" cy="10.292" r="10.292" transform="scale(-1 1) rotate(80.535 -346.13 289.965)" fill="#FDC32E"/><g filter="url(#filter2_f_106_373)"><circle cx="19.92" cy="19.92" r="19.92" transform="scale(-1 1) rotate(80.535 -394.848 323.772)" fill="#FDC32E" fill-opacity=".5"/></g><circle cx="10.292" cy="10.292" r="10.292" transform="scale(-1 1) rotate(80.535 -404.984 324.609)" fill="#FDC32E"/><g filter="url(#filter3_f_106_373)"><circle cx="19.92" cy="19.92" r="19.92" transform="scale(-1 1) rotate(80.535 -460.34 345.794)" fill="#FDC32E" fill-opacity=".5"/></g><circle cx="10.292" cy="10.292" r="10.292" transform="scale(-1 1) rotate(80.535 -470.475 346.635)" fill="#FDC32E"/><defs><filter id="filter0_f_106_373" x="-28" y="440.001" width="79.848" height="79.846" filterUnits="userSpaceOnUse" color-interpolation-filters="sRGB"><feFlood flood-opacity="0" result="BackgroundImageFix"/><feBlend in="SourceGraphic" in2="BackgroundImageFix" result="shape"/><feGaussianBlur stdDeviation="10" result="effect1_foregroundBlur_106_373"/></filter><filter id="filter1_f_106_373" x="-28" y="556.001" width="79.848" height="79.846" filterUnits="userSpaceOnUse" color-interpolation-filters="sRGB"><feFlood flood-opacity="0" result="BackgroundImageFix"/><feBlend in="SourceGraphic" in2="BackgroundImageFix" result="shape"/><feGaussianBlur stdDeviation="10" result="effect1_foregroundBlur_106_373"/></filter><filter id="filter2_f_106_373" x="-13" y="643.001" width="79.848" height="79.846" filterUnits="userSpaceOnUse" color-interpolation-filters="sRGB"><feFlood flood-opacity="0" result="BackgroundImageFix"/><feBlend in="SourceGraphic" in2="BackgroundImageFix" result="shape"/><feGaussianBlur stdDeviation="10" result="effect1_foregroundBlur_106_373"/></filter><filter id="filter3_f_106_373" x="20" y="726.001" width="79.848" height="79.846" filterUnits="userSpaceOnUse" color-interpolation-filters="sRGB"><feFlood flood-opacity="0" result="BackgroundImageFix"/><feBlend in="SourceGraphic" in2="BackgroundImageFix" result="shape"/><feGaussianBlur stdDeviation="10" result="effect1_foregroundBlur_106_373"/></filter><radialGradient id="paint0_radial_106_373" cx="0" cy="0" r="1" gradientUnits="userSpaceOnUse" gradientTransform="rotate(-26.555 1506.924 180.512) scale(264.453 310.975)"><stop stop-color="#FDC32E"/><stop offset="1" stop-color="#fff" stop-opacity="0"/></radialGradient></defs></svg>