<svg width="202" height="55" fill="none" xmlns="http://www.w3.org/2000/svg"><rect width="202" height="55" rx="27.5" fill="#030A24" fill-opacity=".98"/><path d="M31.277 27.18c0-.52.088-1.028.264-1.524a4.5 4.5 0 01.792-1.368 3.8 3.8 0 011.284-.984c.504-.248 1.076-.372 1.716-.372.76 0 1.412.176 1.956.528.544.344.948.788 1.212 1.332l-.852.552a2.295 2.295 0 00-.648-.852 2.274 2.274 0 00-.84-.456 3.063 3.063 0 00-.876-.132c-.472 0-.892.096-1.26.288-.36.192-.664.448-.912.768s-.436.68-.564 1.08c-.12.392-.18.788-.18 1.188 0 .44.072.864.216 1.272.152.408.36.768.624 1.08.264.312.576.56.936.744.36.184.752.276 1.176.276.296 0 .6-.052.912-.156.312-.104.604-.264.876-.48.272-.224.488-.512.648-.864l.9.492a2.694 2.694 0 01-.816 1.08c-.368.296-.78.52-1.236.672a4.126 4.126 0 01-1.332.228c-.584 0-1.12-.124-1.608-.372a4.324 4.324 0 01-1.272-1.008 5.025 5.025 0 01-.828-1.416 4.64 4.64 0 01-.288-1.596zm7.867 5.796v-2.412h.132a.8.8 0 00.48-.156c.152-.104.284-.284.396-.54.12-.264.216-.624.288-1.08.072-.456.12-1.036.144-1.74l.06-1.812h4.26v5.328h.852v2.412h-.936V31.5h-4.74v1.476h-.936zm1.608-2.412h3.096v-4.392H41.58l-.036.972c-.024.68-.072 1.252-.144 1.716-.064.456-.152.82-.264 1.092-.104.272-.232.476-.384.612zm8.95 1.056c-.472 0-.904-.084-1.296-.252a3.326 3.326 0 01-1.008-.708c-.28-.304-.5-.652-.66-1.044a3.421 3.421 0 01-.228-1.248c0-.592.136-1.132.408-1.62a3.18 3.18 0 011.128-1.176c.488-.296 1.044-.444 1.668-.444.632 0 1.18.152 1.644.456.472.296.836.688 1.092 1.176a3.185 3.185 0 01.384 1.8.906.906 0 01-.012.168h-5.196c.032.408.144.772.336 1.092.2.312.456.56.768.744.312.176.648.264 1.008.264.384 0 .744-.096 1.08-.288.344-.192.58-.444.708-.756l.912.252c-.136.304-.34.576-.612.816a2.87 2.87 0 01-.948.564c-.36.136-.752.204-1.176.204zm-2.112-3.624h4.272a2.3 2.3 0 00-.348-1.08 2.168 2.168 0 00-.768-.732 2.064 2.064 0 00-1.032-.264c-.368 0-.708.088-1.02.264-.312.176-.568.42-.768.732a2.384 2.384 0 00-.336 1.08zm5.878 3.552V30.6a.99.99 0 00.552-.156c.168-.112.316-.296.444-.552.128-.264.228-.624.3-1.08.08-.464.132-1.052.156-1.764l.072-1.812h4.26V31.5h-1.056v-5.328h-2.268l-.024.972c-.032.856-.104 1.568-.216 2.136-.112.568-.268 1.016-.468 1.344-.2.328-.448.564-.744.708a2.227 2.227 0 01-1.008.216zm6.997-1.86c0-.4.112-.744.336-1.032a2.22 2.22 0 01.948-.684c.4-.16.864-.24 1.392-.24.28 0 .577.024.889.072.311.04.588.104.828.192v-.456c0-.48-.145-.856-.433-1.128-.287-.28-.695-.42-1.223-.42-.344 0-.676.064-.996.192-.313.12-.645.296-.997.528l-.384-.744c.408-.28.816-.488 1.224-.624a3.794 3.794 0 011.273-.216c.8 0 1.431.224 1.895.672.465.44.697 1.056.697 1.848V30.3c0 .128.023.224.072.288.055.056.143.088.263.096v.816a5.325 5.325 0 01-.275.036 1.682 1.682 0 01-.18.012c-.248 0-.436-.068-.564-.204a.772.772 0 01-.205-.432l-.024-.396a2.67 2.67 0 01-1.068.816 3.25 3.25 0 01-1.307.288c-.416 0-.788-.084-1.116-.252a2.025 2.025 0 01-.768-.696 1.827 1.827 0 01-.276-.984zm4.08.444c.096-.112.172-.224.228-.336a.746.746 0 00.085-.3v-.78a4.156 4.156 0 00-.78-.216 3.98 3.98 0 00-.805-.084c-.536 0-.972.108-1.308.324-.328.208-.492.496-.492.864 0 .2.053.396.157.588.111.184.271.336.48.456.215.12.48.18.791.18.328 0 .64-.064.936-.192a2.1 2.1 0 00.709-.504zM67.59 31.5v-6.264h1.056v2.592h3.264v-2.592h1.056V31.5H71.91v-2.736h-3.264V31.5H67.59zm9.814.12c-.472 0-.9-.084-1.284-.252a3.179 3.179 0 01-.996-.708 3.273 3.273 0 01-.648-1.044 3.389 3.389 0 01-.228-1.236c0-.44.076-.856.228-1.248.152-.392.368-.736.648-1.032.28-.304.612-.54.996-.708.392-.176.82-.264 1.284-.264.472 0 .9.088 1.284.264.384.168.716.404.996.708.288.296.508.64.66 1.032.152.392.228.808.228 1.248 0 .432-.076.844-.228 1.236-.152.392-.368.74-.648 1.044-.28.296-.616.532-1.008.708a3.17 3.17 0 01-1.284.252zm-2.076-3.228c0 .432.092.824.276 1.176.192.352.444.632.756.84.312.2.66.3 1.044.3a1.84 1.84 0 001.044-.312c.32-.208.572-.488.756-.84.192-.36.288-.756.288-1.188 0-.432-.096-.824-.288-1.176a2.193 2.193 0 00-.756-.84 1.84 1.84 0 00-1.044-.312c-.384 0-.732.108-1.044.324a2.329 2.329 0 00-.756.84 2.525 2.525 0 00-.276 1.188z" fill="#fff"/><g clip-path="url(#clip0_424_1153)"><path d="M152.457 35.256h2.6v-2.39l-2.6 2.39zm1.781-2.694l-6.564.02c.025-.92 1.521-1.693 3.28-2.697 1.931-1.102 3.994-2.529 3.994-4.93 0-2.901-2.408-4.201-5.388-4.201a8.86 8.86 0 00-5.085 1.504v2.926c1.564-1.146 3.295-1.692 4.78-1.692 1.486 0 2.449.541 2.449 1.585 0 1.36-1.326 1.926-2.864 2.78-2.175 1.236-4.866 2.572-4.866 5.997v1.402h6.412l3.852-2.694z" fill="#fff"/><path d="M114.589 20.845l-10.493 9.645-.572-1.902-5.07 3.545-4.156 2.91c2.003 2.465 4.923 4.086 8.145 4.52 3.222.435 6.493-.352 9.123-2.193 2.63-1.842 4.414-4.594 4.975-7.677.562-3.082-.144-6.254-1.967-8.846l.015-.002zm-1.865 6.68l-3.934 2.64 3.987-3.73 1.863 2.507-1.916-1.417zm-12.313 1.566l-1.83-1.283-4.886 3.506 4.904-4.876 1.977 2.492 4.088-3.98.705 2.346 9.22-6.451a12.34 12.34 0 00-3.571-3.367 12.843 12.843 0 00-4.655-1.757 13.028 13.028 0 00-4.998.131 12.784 12.784 0 00-4.548 1.999 12.256 12.256 0 00-3.376 3.548 11.772 11.772 0 00-1.666 4.535 11.626 11.626 0 00.306 4.801 11.897 11.897 0 002.232 4.305l6.098-5.95z" fill="#FB0"/><path d="M127.449 21.285l1.039 3.452 5.862-4.103h-6.901v.658-.007zm9.6 6.241c1.344-.438 2.307-1.487 2.307-3.194 0-1.967-1.247-3.12-3.341-3.527l-2.61 2.396h.405c1.437 0 2.307.522 2.307 1.673 0 1.15-.887 1.672-2.129 1.672h-3.282v-.863l-3.26 3v6.582h6.539c2.649 0 5.971-.775 5.971-4.096 0-2.16-1.411-3.226-2.909-3.643h.002zm-3.107 5.184h-3.259v-3.762h3.432c1.302 0 2.585.334 2.585 1.877 0 1.592-1.303 1.885-2.758 1.885zm25.548-11.425l1.039 3.452 5.875-4.1h-6.919v.657l.005-.01zm9.6 6.241c1.344-.438 2.307-1.487 2.307-3.194 0-1.967-1.247-3.12-3.341-3.527l-2.61 2.396h.405c1.437 0 2.307.522 2.307 1.673 0 1.15-.887 1.672-2.129 1.672h-3.282v-.863l-3.26 3v6.582h6.539c2.654 0 5.976-.775 5.976-4.096 0-2.16-1.411-3.226-2.909-3.643h-.003zm-3.107 5.184h-3.259v-3.762h3.426c1.303 0 2.586.334 2.586 1.877.005 1.592-1.298 1.885-2.753 1.885z" fill="#fff"/></g><defs><clipPath id="clip0_424_1153"><path fill="#fff" transform="translate(91 15)" d="M0 0h81v25H0z"/></clipPath></defs></svg>